<svg width="220" height="260" viewBox="0 0 220 260" xmlns="http://www.w3.org/2000/svg">
  <style>
    @keyframes float { 0%, 100% { transform: translateY(0); } 50% { transform: translateY(-6px); } }
    @keyframes noteFloat { 0% { opacity: 0.7; transform: translateY(0) rotate(0deg); } 100% { opacity: 0; transform: translateY(-50px) rotate(12deg); } }
    .float { animation: float 3s ease-in-out infinite; }
    .note { animation: noteFloat 3s ease-in-out infinite; }
  </style>

  <text class="note" x="30" y="35" font-size="17" fill="#b8a0d8" opacity="0.5">&#9835;</text>
  <text class="note" x="178" y="45" font-size="13" fill="#b8a0d8" opacity="0.3" style="animation-delay:1.5s">&#9834;</text>

  <g class="float">
    <ellipse cx="110" cy="228" rx="50" ry="8" fill="#000" opacity="0.12"/>
    <ellipse cx="110" cy="150" rx="68" ry="72" fill="#5c4a6a"/>
    <ellipse cx="110" cy="162" rx="48" ry="50" fill="#7a6890"/>
    <path d="M 82 148 Q 110 158 138 148" stroke="#8a78a0" stroke-width="2" fill="none" opacity="0.5"/>
    <path d="M 85 164 Q 110 174 135 164" stroke="#8a78a0" stroke-width="2" fill="none" opacity="0.5"/>
    <path d="M 88 180 Q 110 190 132 180" stroke="#8a78a0" stroke-width="2" fill="none" opacity="0.5"/>
    <path d="M 58 98 L 55 78 L 72 92" fill="#5c4a6a"/>
    <path d="M 162 98 L 165 78 L 148 92" fill="#5c4a6a"/>
    <path d="M 60 96 L 58 82 L 70 92" fill="#7a6890"/>
    <path d="M 160 96 L 162 82 L 150 92" fill="#7a6890"/>
    <circle cx="86" cy="118" r="24" fill="#6a587a"/>
    <circle cx="134" cy="118" r="24" fill="#6a587a"/>
    <circle cx="86" cy="118" r="19" fill="#8a78a0"/>
    <circle cx="134" cy="118" r="19" fill="#8a78a0"/>
    <path d="M 72 116 Q 86 104 100 116" stroke="#3d2b4f" stroke-width="2.5" fill="none" stroke-linecap="round"/>
    <path d="M 120 116 Q 134 104 148 116" stroke="#3d2b4f" stroke-width="2.5" fill="none" stroke-linecap="round"/>
    <path d="M 105 132 L 110 142 L 115 132 Z" fill="#e8a838"/>
    <circle cx="68" cy="130" r="7" fill="#e8a0c8" opacity="0.3"/>
    <circle cx="152" cy="130" r="7" fill="#e8a0c8" opacity="0.3"/>
    <ellipse cx="110" cy="82" rx="30" ry="7" fill="#2d2d44"/>
    <rect x="84" y="60" width="52" height="22" rx="4" fill="#2d2d44"/>
    <rect x="88" y="55" width="44" height="9" rx="3" fill="#2d2d44"/>
    <rect x="84" y="76" width="52" height="4" fill="#b8a0d8"/>
    <ellipse cx="44" cy="152" rx="16" ry="12" fill="#5c4a6a" transform="rotate(-5 44 152)"/>
    <ellipse cx="176" cy="152" rx="16" ry="12" fill="#5c4a6a" transform="rotate(5 176 152)"/>
    <path d="M 90 220 L 82 228 M 90 220 L 90 229 M 90 220 L 98 228" stroke="#e8a838" stroke-width="2.5" fill="none" stroke-linecap="round"/>
    <path d="M 130 220 L 122 228 M 130 220 L 130 229 M 130 220 L 138 228" stroke="#e8a838" stroke-width="2.5" fill="none" stroke-linecap="round"/>
  </g>
</svg>
