<svg width="200" height="260" viewBox="0 0 200 260" xmlns="http://www.w3.org/2000/svg">
  <style>
    @keyframes float { 0%, 100% { transform: translateY(0); } 50% { transform: translateY(-6px); } }
    @keyframes noteFloat { 0% { opacity: 0.7; transform: translateY(0) rotate(0deg); } 100% { opacity: 0; transform: translateY(-50px) rotate(12deg); } }
    .float { animation: float 3s ease-in-out infinite; }
    .note { animation: noteFloat 3s ease-in-out infinite; }
  </style>

  <text class="note" x="30" y="38" font-size="17" fill="#b8a0d8" opacity="0.5">&#9835;</text>
  <text class="note" x="158" y="46" font-size="13" fill="#b8a0d8" opacity="0.3" style="animation-delay:1.6s">&#9834;</text>

  <g class="float">
    <ellipse cx="100" cy="230" rx="42" ry="7" fill="#000" opacity="0.12"/>
    <ellipse cx="100" cy="148" rx="58" ry="70" fill="#5c4a6a"/>
    <ellipse cx="100" cy="160" rx="38" ry="45" fill="#7a6890"/>
    <path d="M 82 148 Q 100 155 118 148" stroke="#8a78a0" stroke-width="1.8" fill="none" opacity="0.6"/>
    <path d="M 85 162 Q 100 169 115 162" stroke="#8a78a0" stroke-width="1.8" fill="none" opacity="0.6"/>
    <path d="M 87 176 Q 100 183 113 176" stroke="#8a78a0" stroke-width="1.8" fill="none" opacity="0.6"/>
    <path d="M 55 95 L 50 68 L 68 88" fill="#5c4a6a"/>
    <path d="M 145 95 L 150 68 L 132 88" fill="#5c4a6a"/>
    <path d="M 58 92 L 54 72 L 66 88" fill="#7a6890"/>
    <path d="M 142 92 L 146 72 L 134 88" fill="#7a6890"/>
    <circle cx="80" cy="120" r="20" fill="#6a587a"/>
    <circle cx="120" cy="120" r="20" fill="#6a587a"/>
    <circle cx="80" cy="120" r="16" fill="#8a78a0"/>
    <circle cx="120" cy="120" r="16" fill="#8a78a0"/>
    <path d="M 68 118 Q 80 108 92 118" stroke="#3d2b4f" stroke-width="2.5" fill="none" stroke-linecap="round"/>
    <path d="M 108 118 Q 120 108 132 118" stroke="#3d2b4f" stroke-width="2.5" fill="none" stroke-linecap="round"/>
    <path d="M 95 132 L 100 140 L 105 132 Z" fill="#e8a838"/>
    <circle cx="68" cy="130" r="6" fill="#e8a0c8" opacity="0.3"/>
    <circle cx="132" cy="130" r="6" fill="#e8a0c8" opacity="0.3"/>
    <ellipse cx="100" cy="84" rx="28" ry="6" fill="#2d2d44"/>
    <rect x="76" y="64" width="48" height="20" rx="4" fill="#2d2d44"/>
    <rect x="80" y="59" width="40" height="8" rx="3" fill="#2d2d44"/>
    <rect x="76" y="78" width="48" height="3.5" fill="#b8a0d8"/>
    <ellipse cx="46" cy="148" rx="14" ry="10" fill="#5c4a6a" transform="rotate(-8 46 148)"/>
    <ellipse cx="154" cy="148" rx="14" ry="10" fill="#5c4a6a" transform="rotate(8 154 148)"/>
    <line x1="38" y1="145" x2="36" y2="152" stroke="#4a3a5a" stroke-width="1.2" stroke-linecap="round"/>
    <line x1="42" y1="147" x2="40" y2="155" stroke="#4a3a5a" stroke-width="1.2" stroke-linecap="round"/>
    <line x1="158" y1="145" x2="160" y2="152" stroke="#4a3a5a" stroke-width="1.2" stroke-linecap="round"/>
    <line x1="162" y1="147" x2="164" y2="155" stroke="#4a3a5a" stroke-width="1.2" stroke-linecap="round"/>
    <path d="M 80 216 L 72 224 M 80 216 L 80 225 M 80 216 L 88 224" stroke="#e8a838" stroke-width="2.5" fill="none" stroke-linecap="round"/>
    <path d="M 120 216 L 112 224 M 120 216 L 120 225 M 120 216 L 128 224" stroke="#e8a838" stroke-width="2.5" fill="none" stroke-linecap="round"/>
  </g>
</svg>
